<svg width="24" height="25" viewBox="0 0 24 25" fill="none" xmlns="http://www.w3.org/2000/svg">
<path fill-rule="evenodd" clip-rule="evenodd" d="M5.78831 14.52C5.83128 14.5343 5.87546 14.5447 5.92031 14.551C6.20324 15.2176 6.48457 15.885 6.76431 16.553C7.26731 17.755 7.77431 18.993 7.88531 19.349C8.02431 19.787 8.17031 20.085 8.33031 20.289C8.41331 20.393 8.50831 20.485 8.62031 20.555C8.67866 20.5915 8.74109 20.621 8.80631 20.643C9.12631 20.763 9.41831 20.713 9.60131 20.652C9.7087 20.6153 9.81089 20.5649 9.90531 20.502L9.91031 20.5L12.7363 18.738L16.0013 21.24C16.0493 21.277 16.1013 21.308 16.1573 21.333C16.5493 21.503 16.9293 21.563 17.2873 21.515C17.6433 21.465 17.9263 21.316 18.1373 21.147C18.3796 20.9517 18.5728 20.7024 18.7013 20.419L18.7103 20.397L18.7133 20.389L18.7153 20.385V20.383L18.7163 20.382C18.7337 20.339 18.7471 20.2945 18.7563 20.249L21.7363 5.22399C21.7457 5.17589 21.7504 5.12699 21.7503 5.07799C21.7503 4.63799 21.5843 4.21899 21.1953 3.96599C20.8613 3.74899 20.4903 3.73899 20.2553 3.75699C20.0033 3.77699 19.7693 3.83899 19.6123 3.88899C19.5244 3.91684 19.4377 3.9482 19.3523 3.98299L19.3413 3.98799L2.62731 10.544L2.62531 10.545C2.56876 10.5658 2.51305 10.5888 2.45831 10.614C2.32578 10.6736 2.19864 10.7445 2.07831 10.826C1.85131 10.981 1.32831 11.407 1.41731 12.111C1.48731 12.671 1.87131 13.016 2.10631 13.182C2.23431 13.273 2.35631 13.338 2.44631 13.381C2.48631 13.401 2.57231 13.435 2.60931 13.451L2.61931 13.454L5.78831 14.52ZM19.9263 5.36799H19.9243C19.9157 5.37181 19.907 5.37548 19.8983 5.37899L3.16431 11.944C3.15571 11.9475 3.14704 11.9508 3.13831 11.954L3.12831 11.957C3.09775 11.969 3.06772 11.9823 3.03831 11.997C3.06615 12.0129 3.09486 12.0273 3.12431 12.04L6.26631 13.098C6.32246 13.1169 6.37617 13.1424 6.42631 13.174L16.8033 7.09899L16.8133 7.09399C16.8536 7.06949 16.895 7.0468 16.9373 7.02599C17.0093 6.98899 17.1243 6.93499 17.2543 6.89499C17.3443 6.86699 17.6113 6.78799 17.8993 6.88099C18.0521 6.92914 18.1882 7.01927 18.2922 7.14111C18.3962 7.26294 18.4638 7.41156 18.4873 7.56999C18.5246 7.70874 18.5256 7.85472 18.4903 7.99399C18.4203 8.26899 18.2283 8.48299 18.0533 8.64699C17.9033 8.78699 15.9573 10.663 14.0383 12.515L11.4253 15.035L10.9603 15.485L16.8323 19.987C16.9116 20.0202 16.9977 20.034 17.0833 20.027C17.1265 20.0211 17.1671 20.0031 17.2003 19.975C17.2409 19.9408 17.2756 19.9002 17.3033 19.855L17.3053 19.854L20.1953 5.28099C20.1043 5.30288 20.015 5.33163 19.9283 5.36699L19.9263 5.36799ZM11.4653 17.762L10.2933 16.864L10.0093 18.669L11.4653 17.762ZM9.21831 15.082L10.3833 13.957L12.9963 11.435L13.9693 10.497L7.44931 14.314L7.48431 14.396C7.89552 15.3674 8.30219 16.3408 8.70431 17.316L8.98731 15.516C9.01292 15.349 9.09435 15.1967 9.21831 15.082Z" fill="#797983"/>
</svg>
