<svg class="svg-icon" style="width: 1em;height: 1em;vertical-align: middle;fill: currentColor;overflow: hidden;" viewBox="0 0 1024 1024" version="1.1" xmlns="http://www.w3.org/2000/svg"><path d="M71.84 318.112a124.352 124.352 0 0 1 118.4-116.096C281.952 197.472 413.12 192 512 192c98.816 0 230.016 5.472 321.76 10.016a124.352 124.352 0 0 1 118.4 116.096C956.16 378.784 960 453.44 960 512s-3.872 133.216-7.808 193.888a124.352 124.352 0 0 1-118.4 116.096C742.016 826.528 610.784 832 512 832c-98.816 0-230.016-5.472-321.792-10.016a124.352 124.352 0 0 1-118.4-116.096C67.904 645.216 64 570.56 64 512s3.872-133.216 7.84-193.888z" fill="#FC0D1B" /><path d="M416 384v256l256-128-256-128z" fill="#FFFFFF" /></svg>